<?xml version="1.0" standalone="no"?>
<!DOCTYPE svg PUBLIC "-//W3C//DTD SVG 20010904//EN"
 "http://www.w3.org/TR/2001/REC-SVG-20010904/DTD/svg10.dtd">
<svg version="1.0" xmlns="http://www.w3.org/2000/svg"
 width="500.000000pt" height="500.000000pt" viewBox="0 0 500.000000 500.000000"
 preserveAspectRatio="xMidYMid meet">

<g transform="translate(0.000000,500.000000) scale(0.100000,-0.100000)"
fill="#000000" stroke="none">
<path d="M1370 2874 l0 -926 338 5 c257 4 353 9 404 21 283 66 515 249 633
501 68 144 80 202 80 405 0 182 -6 223 -54 351 -87 231 -322 448 -571 527
-115 37 -176 42 -507 42 l-323 0 0 -926z m618 541 c93 -22 159 -60 233 -134
109 -109 159 -234 159 -401 0 -171 -55 -305 -169 -413 -104 -97 -203 -137
-348 -137 l-83 0 0 550 0 550 73 0 c39 0 100 -7 135 -15z"/>
<path d="M2445 3763 c6 -5 45 -35 87 -67 96 -71 186 -167 249 -264 l49 -75 0
42 0 41 98 0 c159 0 262 -42 302 -124 24 -50 27 -159 6 -209 -31 -73 -126
-127 -239 -135 l-69 -5 7 -42 c6 -42 -10 -240 -22 -272 -6 -15 6 -16 138 -10
165 8 234 23 337 73 142 69 241 194 278 350 22 94 14 275 -15 359 -43 122
-129 214 -255 275 -124 59 -155 62 -576 67 -220 3 -381 1 -375 -4z"/>
<path d="M3147 2478 c-40 -11 -97 -60 -97 -84 0 -7 17 -22 39 -33 l38 -20 11
24 c22 47 105 45 123 -2 13 -34 -16 -77 -54 -81 -23 -3 -27 -8 -27 -37 0 -27
3 -32 18 -28 30 7 72 -34 72 -70 0 -40 -9 -53 -43 -66 -36 -14 -73 1 -95 38
l-16 29 -49 -24 -48 -25 20 -32 c62 -101 246 -109 314 -13 16 23 22 45 22 88
0 48 -4 61 -27 85 -26 27 -27 30 -12 45 26 26 29 107 5 145 -35 55 -118 82
-194 61z"/>
<path d="M2783 2329 c-75 -116 -198 -241 -309 -314 l-46 -30 197 -3 c109 -1
200 -1 202 1 2 2 2 96 1 207 l-3 203 -42 -64z"/>
<path d="M1770 1565 l0 -175 25 0 25 0 0 175 0 175 -25 0 -25 0 0 -175z"/>
<path d="M1890 1715 c0 -23 4 -25 45 -25 l45 0 0 -150 0 -150 25 0 25 0 0 150
0 150 45 0 c41 0 45 2 45 25 l0 25 -115 0 -115 0 0 -25z"/>
<path d="M2350 1565 l0 -177 89 4 c99 3 127 16 169 78 27 41 30 125 5 177 -28
59 -81 86 -179 91 l-84 5 0 -178z m195 95 c56 -53 53 -145 -6 -195 -25 -20
-41 -25 -85 -25 l-54 0 0 126 0 126 60 -4 c45 -3 66 -10 85 -28z"/>
<path d="M2717 1733 c-4 -3 -7 -82 -7 -175 l0 -168 121 0 c119 0 120 0 117 23
-3 21 -8 22 -95 25 l-93 3 0 49 0 50 80 0 c79 0 80 0 80 25 0 25 -1 25 -80 25
l-80 0 0 50 0 50 90 0 c89 0 90 0 90 25 l0 25 -108 0 c-60 0 -112 -3 -115 -7z"/>
<path d="M3030 1565 l0 -175 110 0 110 0 0 25 c0 25 -1 25 -85 25 l-85 0 0
150 0 150 -25 0 -25 0 0 -175z"/>
<path d="M950 1183 c0 -56 4 -93 10 -93 6 0 10 27 10 62 l0 62 65 -64 65 -64
0 87 c0 51 -4 87 -10 87 -6 0 -10 -28 -10 -62 l-1 -63 -64 70 -64 70 -1 -92z"/>
<path d="M1172 1255 c-38 -27 -26 -61 32 -90 11 -6 21 -19 21 -30 0 -17 -6
-20 -42 -18 -24 1 -43 -2 -43 -7 0 -21 78 -28 98 -8 7 7 12 25 12 40 0 22 -8
32 -41 48 -48 25 -46 44 4 48 35 3 54 22 23 22 -8 0 -20 2 -28 5 -7 3 -23 -2
-36 -10z"/>
<path d="M2754 1260 c-87 -35 -60 -170 33 -170 40 0 93 45 93 80 0 33 -26 75
-55 88 -30 14 -42 14 -71 2z m78 -37 c10 -9 18 -30 18 -49 0 -69 -88 -84 -118
-21 -13 28 -4 62 22 79 19 13 59 9 78 -9z"/>
<path d="M3114 1260 c-56 -23 -72 -103 -29 -145 44 -45 116 -29 141 30 29 70
-43 144 -112 115z m85 -52 c33 -59 -28 -121 -83 -85 -34 23 -43 60 -21 93 23
35 83 31 104 -8z"/>
<path d="M3314 1256 c-83 -36 -53 -166 37 -166 48 0 59 9 59 51 0 35 -3 39
-24 39 -32 0 -44 -20 -17 -27 31 -8 22 -37 -11 -41 -56 -7 -91 74 -48 113 13
12 30 16 55 13 40 -5 50 16 13 26 -29 7 -27 8 -64 -8z"/>
<path d="M880 1175 c0 -50 4 -85 10 -85 6 0 10 35 10 85 0 50 -4 85 -10 85 -6
0 -10 -35 -10 -85z"/>
<path d="M1280 1250 c0 -5 11 -10 25 -10 24 0 25 -2 25 -75 0 -43 4 -75 10
-75 6 0 10 32 10 75 0 73 1 75 25 75 14 0 25 5 25 10 0 6 -27 10 -60 10 -33 0
-60 -4 -60 -10z"/>
<path d="M1430 1175 c0 -69 3 -85 15 -85 12 0 15 16 15 85 0 69 -3 85 -15 85
-12 0 -15 -16 -15 -85z"/>
<path d="M1495 1250 c3 -5 15 -10 26 -10 17 0 19 -7 19 -75 0 -43 4 -75 10
-75 6 0 10 32 10 75 0 73 1 75 25 75 14 0 25 5 25 10 0 6 -27 10 -61 10 -37 0
-58 -4 -54 -10z"/>
<path d="M1650 1192 c0 -77 16 -102 63 -102 47 0 67 31 67 105 0 85 -16 84
-22 -1 -3 -42 -9 -69 -19 -75 -42 -26 -69 5 -69 82 0 33 -4 59 -10 59 -6 0
-10 -29 -10 -68z"/>
<path d="M1810 1250 c0 -5 11 -10 25 -10 24 0 25 -2 25 -75 0 -43 4 -75 10
-75 6 0 10 32 10 75 0 73 1 75 25 75 14 0 25 5 25 10 0 6 -27 10 -60 10 -33 0
-60 -4 -60 -10z"/>
<path d="M2030 1250 c0 -5 11 -10 25 -10 24 0 25 -2 25 -75 0 -43 4 -75 10
-75 6 0 10 32 10 75 0 68 2 75 19 75 11 0 23 5 26 10 4 6 -17 10 -54 10 -34 0
-61 -4 -61 -10z"/>
<path d="M2180 1175 l0 -85 60 0 c33 0 60 4 60 10 0 6 -20 10 -45 10 -43 0
-45 1 -45 30 0 28 2 30 40 30 22 0 40 5 40 10 0 6 -18 10 -40 10 -36 0 -40 3
-40 25 0 23 4 25 45 25 25 0 45 5 45 10 0 6 -27 10 -60 10 l-60 0 0 -85z"/>
<path d="M2340 1175 c0 -69 3 -85 15 -85 11 0 15 11 15 40 0 22 4 40 9 40 4 0
21 -18 36 -40 15 -22 34 -40 42 -40 16 0 12 9 -30 63 l-30 38 34 35 c42 43 17
46 -28 2 l-33 -32 0 32 c0 22 -5 32 -15 32 -12 0 -15 -16 -15 -85z"/>
<path d="M2510 1177 c0 -51 4 -87 10 -87 6 0 10 27 10 62 l0 62 65 -64 65 -64
0 87 c0 51 -4 87 -10 87 -6 0 -10 -27 -10 -62 l0 -62 -65 64 -65 64 0 -87z"/>
<path d="M2920 1175 l0 -85 55 0 c30 0 55 5 55 10 0 6 -20 10 -45 10 l-45 0 0
75 c0 43 -4 75 -10 75 -6 0 -10 -35 -10 -85z"/>
<path d="M3450 1175 c0 -69 3 -85 15 -85 12 0 15 16 15 85 0 69 -3 85 -15 85
-12 0 -15 -16 -15 -85z"/>
<path d="M3600 1175 l0 -85 46 0 c37 0 51 5 75 29 32 33 36 58 14 100 -17 34
-33 41 -91 41 l-44 0 0 -85z m102 48 c21 -19 24 -75 5 -92 -8 -6 -28 -14 -45
-17 l-32 -6 0 66 c0 65 0 66 27 66 14 0 35 -7 45 -17z"/>
<path d="M3790 1175 l0 -85 55 0 c30 0 55 5 55 10 0 6 -20 10 -45 10 -43 0
-45 1 -45 30 0 28 2 30 40 30 22 0 40 5 40 10 0 6 -18 10 -40 10 -36 0 -40 3
-40 25 0 23 4 25 45 25 25 0 45 5 45 10 0 6 -25 10 -55 10 l-55 0 0 -85z"/>
<path d="M3950 1175 l0 -85 55 0 c30 0 55 5 55 10 0 6 -20 10 -45 10 l-45 0 0
75 c0 43 -4 75 -10 75 -6 0 -10 -35 -10 -85z"/>
</g>
</svg>
